<svg width="182" height="37" viewBox="0 0 182 37" fill="none" xmlns="http://www.w3.org/2000/svg">
<g clip-path="url(#clip0_3577_6927)">
<path fill-rule="evenodd" clip-rule="evenodd" d="M11.1379 30.839L14.3839 22.2549L13.0315 18.9442L12.6189 22.1864L10.759 26.4835C10.9401 27.9475 11.0384 29.3647 11.1379 30.8387V30.839Z" fill="white"/>
<path fill-rule="evenodd" clip-rule="evenodd" d="M19.1677 22.1895L18.6068 21.7732L14.751 22.8461L12.3951 31.8661C12.7252 32.4192 13.0534 32.9736 13.3816 33.527L16.3194 23.5036L18.6068 21.7732L22.4686 22.8404L19.1677 22.1895Z" fill="white"/>
<path fill-rule="evenodd" clip-rule="evenodd" d="M18.4118 24.7711C18.9498 24.895 19.3158 24.8115 19.5058 24.5189C19.1318 24.7251 18.7499 24.7027 18.4019 24.4495C18.0199 24.7478 17.7445 24.6793 17.3189 24.5189L17.0643 24.4186C16.9212 24.3669 16.7549 24.3088 16.571 24.2517L14.556 34.6861C15.9214 35.472 17.2185 36.1575 18.6068 36.875L21.8768 35.1803C20.7441 35.6022 19.7706 35.9614 18.6119 36.3909L18.412 24.7711H18.4118Z" fill="white"/>
<path fill-rule="evenodd" clip-rule="evenodd" d="M16.7839 17.9524C16.5243 17.9243 13.1013 17.8221 13.6363 18.2545C14.7402 19.1312 14.2358 21.1776 14.3742 21.28C15.1221 21.8455 17.4175 18.0088 16.7839 17.9526V17.9524Z" fill="white"/>
<path fill-rule="evenodd" clip-rule="evenodd" d="M10.8734 23.6815L12.2678 21.1624L12.2112 18.2645L11.0087 19.765L10.9101 22.631L10.9042 22.7887L10.8962 22.9612L10.8734 23.6815Z" fill="white"/>
<path fill-rule="evenodd" clip-rule="evenodd" d="M20.8373 11.3358C18.8921 11.5676 16.8762 11.8855 14.9885 12.39C14.2008 12.6001 13.4022 12.8524 12.6543 13.1655C12.5906 13.1917 12.6345 13.1769 12.6731 13.1721C13.9938 12.9817 15.3693 12.8439 16.7029 12.811C17.2768 12.7969 17.9688 12.7969 18.5359 12.8823C18.5856 12.8899 18.6332 12.8974 18.682 12.9066C14.3451 13.1757 -3.7342 16.0155 10.0527 21.0124C5.85292 20.264 3.52976 19.2119 3.49981 17.4178C3.47011 15.0403 9.01451 13.8249 10.9628 13.4553C11.1806 13.414 11.3983 13.339 11.6161 13.2847C11.6996 13.2651 11.7295 13.2528 11.8062 13.2191C11.9811 13.1431 11.8927 13.1497 11.7623 13.1478C11.6539 13.1469 11.4341 13.1497 11.5265 12.9921C11.5732 12.9132 11.635 12.8252 11.6847 12.7454C12.2754 11.8113 12.7637 10.8267 13.2183 9.82869C13.2838 9.68332 14.9477 5.57287 15.5504 4.20736C15.6171 4.05632 15.6867 3.89135 15.7602 3.74409C15.8468 3.56779 16.1839 2.86994 16.3082 2.64408C16.71 1.91153 17.2699 1.048 17.982 0.552633C19.1336 -0.244582 20.3101 0.185886 21.3513 0.921268C20.4275 0.428024 19.2628 0.140101 18.4552 0.984044C18.1211 1.33191 17.9193 1.81218 17.8118 2.26601C17.7679 2.44985 17.8764 2.45646 17.7552 2.70591C17.7014 2.8166 17.7054 2.86262 17.6934 2.98345C17.5951 4.00393 17.745 5.11337 17.9759 6.11119C17.5055 5.79141 17.228 5.48932 17.1436 5.20423C16.9884 6.57352 17.7175 7.39126 19.3285 7.65677C17.1068 8.07402 15.607 9.30076 14.8294 11.3358C16.8095 10.9353 18.8572 10.9353 20.8373 11.3358Z" fill="white"/>
<path fill-rule="evenodd" clip-rule="evenodd" d="M23.6141 18.1285C23.0164 18.4568 22.3977 19.267 22.3541 20.8164C22.0994 20.9046 21.9801 21.0762 21.3287 20.2828C22.0945 21.4448 22.6005 21.8413 22.8502 21.4691C22.6969 19.8214 22.9516 18.7063 23.6139 18.1285H23.6141Z" fill="#6A3190"/>
<path fill-rule="evenodd" clip-rule="evenodd" d="M26.198 19.765L26.0379 22.8073L25.3488 22.0375C25.6649 22.5645 25.9962 23.1826 26.3353 23.6815L26.198 19.765Z" fill="#6A3190"/>
<path fill-rule="evenodd" clip-rule="evenodd" d="M24.2946 26.1085L26.0707 30.8389C26.1245 29.8579 26.2497 28.4062 26.4496 26.4838C26.2697 27.4037 26.0917 28.3239 25.9115 29.2438L24.2946 26.1088V26.1085Z" fill="#6A3190"/>
<path fill-rule="evenodd" clip-rule="evenodd" d="M21.5078 25.6235C22.2814 28.2571 23.0472 30.8961 23.827 33.5268L24.8106 31.8658C24.6814 31.9812 23.9614 32.5889 23.9305 32.6151C23.9305 32.6151 23.1199 30.6494 21.5078 25.6235Z" fill="#6A3190"/>
<path fill-rule="evenodd" clip-rule="evenodd" d="M24.4992 13.0633C21.799 8.84119 18.6028 -0.160169 24.379 4.9547C23.8499 2.99848 22.9091 2.20032 21.8908 1.34033C22.8186 2.33909 23.4252 3.10256 23.6601 3.87995C23.122 3.36027 22.227 2.92697 21.5208 2.97771C21.6012 2.6702 21.8976 2.4722 22.1124 2.39526C20.564 2.46842 20.1929 4.28399 21.1577 7.05158C20.4555 6.28528 20.0021 5.26882 19.6063 4.29154C19.7961 6.54795 22.8445 11.2633 24.4992 13.063V13.0633Z" fill="#6A3190"/>
<path fill-rule="evenodd" clip-rule="evenodd" d="M21.6052 13.251C27.7025 13.7817 32.2357 15.648 32.2357 17.369C32.2357 19.5822 28.2646 20.3898 26.6981 21.0124C30.8979 20.264 33.25 19.2117 33.25 17.4176C33.25 15.6235 28.2545 13.6531 21.6052 13.2507V13.251Z" fill="#6A3190"/>
<path fill-rule="evenodd" clip-rule="evenodd" d="M16.8773 20.6796C17.4441 20.6544 17.2006 20.2267 17.3218 19.6405C17.1586 19.8019 16.182 20.6796 16.8773 20.6796ZM18.01 19.6197C17.5038 20.159 17.7504 20.8314 18.533 20.8502C19.2073 20.8663 20.1401 20.5857 20.4216 20.6102C20.527 20.6206 20.6206 20.6919 20.6642 20.796C20.7078 20.9 20.696 21.0211 20.6333 21.1138C20.9356 20.9628 21.1068 20.6121 21.0521 20.2576C20.9526 19.6209 20.523 19.7597 20.0983 19.3844C19.1795 18.4333 19.2172 16.3683 19.084 15.8524C19.0493 16.0101 19.0253 16.2277 19.0005 16.4807C18.905 17.4306 18.7897 18.8891 18.01 19.6195V19.6197Z" fill="white"/>
</g>
<path d="M45.5036 16.9231L42.3866 6.533H44.9544L46.513 11.9952C46.5822 12.2426 46.6416 12.495 46.6911 12.7522C46.7505 12.9996 46.795 13.2371 46.8247 13.4647C46.8642 13.6923 46.8939 13.905 46.9137 14.103C46.9335 14.291 46.9533 14.4493 46.9731 14.5779H46.6466C46.7059 14.2118 46.7554 13.8853 46.795 13.5983C46.8445 13.3113 46.8989 13.0441 46.9583 12.7968C47.0176 12.5395 47.0918 12.2723 47.1809 11.9952L48.7246 7.88372H50.7432L52.2572 11.9952C52.376 12.3218 52.4749 12.6285 52.5541 12.9155C52.6332 13.2025 52.6926 13.4795 52.7322 13.7467C52.7817 14.004 52.8213 14.2613 52.8509 14.5186L52.5541 14.5631C52.5739 14.385 52.5887 14.2217 52.5986 14.0733C52.6085 13.9149 52.6184 13.7665 52.6283 13.628C52.6481 13.4795 52.6679 13.3262 52.6877 13.1678C52.7075 13.0095 52.7371 12.8363 52.7767 12.6483C52.8163 12.4504 52.8707 12.2278 52.94 11.9804L54.4837 6.533H56.9922L53.8751 16.9231H51.9455L49.4816 10.9414L49.7636 10.9711L47.4926 16.9231H45.5036Z" fill="white"/>
<path d="M58.1672 16.9231V14.8006H59.9187V8.65555H58.1672V6.533H64.2083V8.65555H62.442V14.8006H64.2083V16.9231H58.1672Z" fill="white"/>
<path d="M66.1926 16.9231V15.2459L71.7736 7.82434L72.6494 8.84851H66.5786V6.533H74.4157V8.19542L68.8644 15.6318L67.9738 14.7115H74.579V16.9231H66.1926Z" fill="white"/>
<path d="M75.4193 16.9231L79.5308 6.533H81.6682L85.7501 16.9231H83.1971L81.2378 11.6538C81.1586 11.446 81.0795 11.2234 81.0003 10.9859C80.9212 10.7484 80.842 10.506 80.7628 10.2586C80.6837 10.0013 80.6045 9.75394 80.5253 9.51645C80.4561 9.26907 80.3967 9.04147 80.3472 8.83367L80.7925 8.81883C80.7331 9.06621 80.6639 9.30865 80.5847 9.54614C80.5154 9.78362 80.4412 10.0211 80.3621 10.2586C80.2928 10.4862 80.2136 10.7187 80.1246 10.9562C80.0355 11.1838 79.9514 11.4213 79.8722 11.6687L77.913 16.9231H75.4193ZM77.3786 14.9342L78.1653 13.0343H82.9448L83.7166 14.9342H77.3786Z" fill="white"/>
<path d="M87.0464 16.9231V6.533H91.722C92.385 6.533 92.9836 6.67648 93.518 6.96345C94.0622 7.25041 94.4877 7.64623 94.7945 8.15089C95.1012 8.64566 95.2546 9.20969 95.2546 9.843C95.2546 10.4961 95.1012 11.0849 94.7945 11.6093C94.4877 12.1239 94.0672 12.5296 93.5328 12.8264C92.9985 13.1233 92.3949 13.2717 91.722 13.2717H89.451V16.9231H87.0464ZM92.8055 16.9231L90.1635 12.2327L92.7461 11.8617L95.6851 16.9231H92.8055ZM89.451 11.3421H91.4993C91.7566 11.3421 91.9793 11.2877 92.1673 11.1789C92.3652 11.0601 92.5136 10.8969 92.6126 10.6891C92.7214 10.4812 92.7758 10.2438 92.7758 9.97658C92.7758 9.70941 92.7165 9.47687 92.5977 9.27896C92.479 9.07116 92.3058 8.91283 92.0782 8.80398C91.8605 8.69513 91.5933 8.64071 91.2767 8.64071H89.451V11.3421Z" fill="white"/>
<path d="M97.4684 16.9231V6.533H101.817C102.579 6.533 103.277 6.66164 103.91 6.91892C104.544 7.1663 105.088 7.52253 105.543 7.98762C106.008 8.4527 106.364 9.00189 106.612 9.63519C106.859 10.2685 106.983 10.9661 106.983 11.7281C106.983 12.49 106.859 13.1926 106.612 13.8358C106.364 14.4691 106.008 15.0183 105.543 15.4834C105.088 15.9385 104.544 16.2948 103.91 16.5521C103.277 16.7994 102.579 16.9231 101.817 16.9231H97.4684ZM99.9918 15.2013L99.6504 14.6967H101.743C102.159 14.6967 102.53 14.6274 102.856 14.4889C103.183 14.3404 103.46 14.1376 103.688 13.8803C103.925 13.623 104.108 13.3113 104.237 12.9452C104.366 12.5791 104.43 12.1734 104.43 11.7281C104.43 11.2828 104.366 10.8771 104.237 10.5109C104.108 10.1448 103.925 9.8331 103.688 9.57582C103.46 9.31854 103.183 9.12064 102.856 8.9821C102.53 8.83367 102.159 8.75945 101.743 8.75945H99.6058L99.9918 8.28448V15.2013Z" fill="white"/>
<path d="M118.513 17.0716C117.681 17.0716 116.929 16.938 116.256 16.6708C115.583 16.4036 115.005 16.0276 114.52 15.5427C114.035 15.0579 113.664 14.4889 113.407 13.8358C113.149 13.1728 113.021 12.4554 113.021 11.6835C113.021 10.9117 113.154 10.2042 113.421 9.56098C113.698 8.90789 114.089 8.3389 114.594 7.85403C115.099 7.36916 115.692 6.99313 116.375 6.72596C117.068 6.45878 117.82 6.3252 118.631 6.3252C119.205 6.3252 119.744 6.39941 120.249 6.54784C120.764 6.69627 121.229 6.89913 121.644 7.15641C122.06 7.41369 122.411 7.71055 122.698 8.04699L121.169 9.66488C120.922 9.42739 120.665 9.22948 120.398 9.07116C120.14 8.91283 119.863 8.78914 119.566 8.70008C119.27 8.60113 118.953 8.55165 118.616 8.55165C118.181 8.55165 117.78 8.63082 117.414 8.78914C117.058 8.94747 116.741 9.17011 116.464 9.45708C116.197 9.73415 115.989 10.0656 115.841 10.4516C115.692 10.8276 115.618 11.2382 115.618 11.6835C115.618 12.1288 115.697 12.5444 115.856 12.9304C116.014 13.3163 116.232 13.6527 116.509 13.9397C116.786 14.2167 117.112 14.4394 117.488 14.6076C117.874 14.7659 118.285 14.8451 118.72 14.8451C119.027 14.8451 119.314 14.7956 119.581 14.6967C119.858 14.5977 120.096 14.4641 120.294 14.2959C120.492 14.1277 120.65 13.9298 120.769 13.7022C120.887 13.4647 120.947 13.2124 120.947 12.9452V12.5593L121.273 13.0639H118.409V11.0898H123.292C123.312 11.1987 123.327 11.3471 123.336 11.5351C123.346 11.7231 123.351 11.9062 123.351 12.0843C123.361 12.2624 123.366 12.396 123.366 12.4851C123.366 13.1579 123.242 13.7764 122.995 14.3404C122.758 14.8946 122.421 15.3745 121.986 15.7802C121.55 16.1859 121.036 16.5026 120.442 16.7302C119.848 16.9578 119.205 17.0716 118.513 17.0716Z" fill="white"/>
<path d="M123.833 16.9231L127.945 6.533H130.082L134.164 16.9231H131.611L129.652 11.6538C129.572 11.446 129.493 11.2234 129.414 10.9859C129.335 10.7484 129.256 10.506 129.177 10.2586C129.097 10.0013 129.018 9.75394 128.939 9.51645C128.87 9.26907 128.811 9.04147 128.761 8.83367L129.206 8.81883C129.147 9.06621 129.078 9.30865 128.999 9.54614C128.929 9.78362 128.855 10.0211 128.776 10.2586C128.707 10.4862 128.627 10.7187 128.538 10.9562C128.449 11.1838 128.365 11.4213 128.286 11.6687L126.327 16.9231H123.833ZM125.792 14.9342L126.579 13.0343H131.359L132.13 14.9342H125.792Z" fill="white"/>
<path d="M135.46 16.9231V6.533H137.984V14.6967H142.615V16.9231H135.46Z" fill="white"/>
<path d="M144.505 16.9231V6.533H147.029V14.6967H151.66V16.9231H144.505Z" fill="white"/>
<path d="M153.55 16.9231V6.533H160.794V8.68524H155.999V14.7709H160.942V16.9231H153.55ZM154.738 12.6632V10.6148H160.126V12.6632H154.738Z" fill="white"/>
<path d="M163.117 16.9231V6.533H167.793C168.456 6.533 169.054 6.67648 169.589 6.96345C170.133 7.25041 170.558 7.64623 170.865 8.15089C171.172 8.64566 171.325 9.20969 171.325 9.843C171.325 10.4961 171.172 11.0849 170.865 11.6093C170.558 12.1239 170.138 12.5296 169.603 12.8264C169.069 13.1233 168.465 13.2717 167.793 13.2717H165.522V16.9231H163.117ZM168.876 16.9231L166.234 12.2327L168.817 11.8617L171.756 16.9231H168.876ZM165.522 11.3421H167.57C167.827 11.3421 168.05 11.2877 168.238 11.1789C168.436 11.0601 168.584 10.8969 168.683 10.6891C168.792 10.4812 168.846 10.2438 168.846 9.97658C168.846 9.70941 168.787 9.47687 168.668 9.27896C168.55 9.07116 168.376 8.91283 168.149 8.80398C167.931 8.69513 167.664 8.64071 167.347 8.64071H165.522V11.3421Z" fill="white"/>
<path d="M175.486 16.9231V11.7429L175.59 12.4702L171.39 6.533H174.254L177.46 11.1343L176.154 11.0898L179.049 6.533H181.824L177.802 12.6335L178.025 11.6242V16.9231H175.486Z" fill="white"/>
<path d="M47.0836 30.7477V23.3354H48.1108L52.6428 29.4029L52.4734 29.4982C52.4452 29.3217 52.4205 29.1311 52.3993 28.9264C52.3781 28.7146 52.3569 28.4922 52.3358 28.2593C52.3216 28.0193 52.3075 27.7686 52.2934 27.5074C52.2863 27.2392 52.2793 26.9604 52.2722 26.6709C52.2652 26.3815 52.2616 26.0815 52.2616 25.7709V23.3354H53.4052V30.7477H52.3569L47.899 24.9026L48.0154 24.7543C48.0507 25.1849 48.079 25.552 48.1002 25.8556C48.1284 26.1521 48.1496 26.4062 48.1637 26.618C48.1849 26.8227 48.199 26.9921 48.2061 27.1262C48.2131 27.2533 48.2166 27.3592 48.2166 27.4439C48.2237 27.5286 48.2272 27.6028 48.2272 27.6663V30.7477H47.0836Z" fill="#6A3190"/>
<path d="M57.5982 30.7477V23.3354H58.7418V30.7477H57.5982ZM58.1064 27.5922V26.4909H61.9291V27.5922H58.1064ZM58.1064 24.4366V23.3354H62.4056V24.4366H58.1064Z" fill="#6A3190"/>
<path d="M67.6493 30.7477V24.4366H65.5739V23.3354H70.9319V24.4366H68.793V30.7477H67.6493Z" fill="#6A3190"/>
<path d="M79.5455 30.7477V23.3354H80.6679L83.3681 27.7298L82.8281 27.7192L85.5601 23.3354H86.619V30.7477H85.4753V27.7086C85.4753 27.0733 85.4895 26.5015 85.5177 25.9932C85.553 25.485 85.6095 24.9802 85.6871 24.479L85.8354 24.8708L83.4105 28.6193H82.7116L80.3609 24.9131L80.4773 24.479C80.555 24.952 80.6079 25.4391 80.6362 25.9403C80.6715 26.4344 80.6891 27.0239 80.6891 27.7086V30.7477H79.5455Z" fill="#6A3190"/>
<path d="M90.0419 30.7477L92.9115 23.3354H94.0763L96.9248 30.7477H95.707L94.0128 26.2791C93.9916 26.2297 93.9493 26.1097 93.8857 25.9191C93.8293 25.7285 93.7622 25.5167 93.6845 25.2838C93.6069 25.0508 93.5363 24.839 93.4728 24.6484C93.4092 24.4508 93.3669 24.3237 93.3457 24.2672L93.5892 24.2566C93.5469 24.3766 93.4939 24.5284 93.4304 24.712C93.3739 24.8955 93.3104 25.0896 93.2398 25.2943C93.1763 25.4991 93.1127 25.6932 93.0492 25.8767C92.9857 26.0532 92.9327 26.2015 92.8904 26.3215L91.2067 30.7477H90.0419ZM91.3126 28.9052L91.7362 27.8039H95.1035L95.5906 28.9052H91.3126Z" fill="#6A3190"/>
<path d="M100.347 30.7477V23.3354H103.503C103.926 23.3354 104.314 23.4413 104.667 23.6531C105.027 23.8578 105.313 24.1401 105.525 24.5002C105.737 24.8531 105.843 25.252 105.843 25.6967C105.843 26.0991 105.737 26.4733 105.525 26.8192C105.313 27.1651 105.031 27.4439 104.678 27.6557C104.325 27.8604 103.933 27.9628 103.503 27.9628H101.491V30.7477H100.347ZM104.752 30.7477L102.867 27.4016L104.043 27.1368L106.139 30.7583L104.752 30.7477ZM101.491 26.8615H103.608C103.813 26.8615 103.997 26.8121 104.159 26.7133C104.321 26.6074 104.449 26.4662 104.54 26.2897C104.632 26.1062 104.678 25.905 104.678 25.6861C104.678 25.4391 104.618 25.2238 104.498 25.0402C104.385 24.8496 104.223 24.7014 104.011 24.5955C103.806 24.4896 103.573 24.4366 103.312 24.4366H101.491V26.8615Z" fill="#6A3190"/>
<path d="M110.781 28.5028L110.717 27.2215L114.603 23.3354H116.107L110.781 28.5028ZM109.828 30.7477V23.3354H110.971V30.7477H109.828ZM114.741 30.7477L111.903 26.9568L112.75 26.2262L116.17 30.7477H114.741Z" fill="#6A3190"/>
<path d="M119.701 30.7477V23.3354H124.371V24.4366H120.845V29.6464H124.371V30.7477H119.701ZM120.22 27.4969V26.3956H123.788V27.4969H120.22Z" fill="#6A3190"/>
<path d="M129.731 30.7477V24.4366H127.656V23.3354H133.014V24.4366H130.875V30.7477H129.731Z" fill="#6A3190"/>
<path d="M136.542 30.7477V23.3354H139.56C139.962 23.3354 140.326 23.4377 140.651 23.6425C140.982 23.8401 141.247 24.1119 141.445 24.4578C141.642 24.8037 141.741 25.1885 141.741 25.612C141.741 26.0356 141.642 26.4203 141.445 26.7662C141.247 27.1121 140.982 27.391 140.651 27.6028C140.326 27.8075 139.962 27.9098 139.56 27.9098H137.686V30.7477H136.542ZM137.686 26.8086H139.539C139.729 26.8086 139.902 26.7556 140.058 26.6497C140.213 26.5368 140.336 26.3921 140.428 26.2156C140.527 26.032 140.576 25.8309 140.576 25.612C140.576 25.3932 140.527 25.1955 140.428 25.019C140.336 24.8426 140.213 24.7014 140.058 24.5955C139.902 24.4896 139.729 24.4366 139.539 24.4366H137.686V26.8086Z" fill="#6A3190"/>
<path d="M145.371 30.7477V23.3354H146.515V29.6464H149.988V30.7477H145.371Z" fill="#6A3190"/>
<path d="M153.055 30.7477L155.924 23.3354H157.089L159.938 30.7477H158.72L157.026 26.2791C157.004 26.2297 156.962 26.1097 156.899 25.9191C156.842 25.7285 156.775 25.5167 156.697 25.2838C156.62 25.0508 156.549 24.839 156.486 24.6484C156.422 24.4508 156.38 24.3237 156.358 24.2672L156.602 24.2566C156.56 24.3766 156.507 24.5284 156.443 24.712C156.387 24.8955 156.323 25.0896 156.253 25.2943C156.189 25.4991 156.126 25.6932 156.062 25.8767C155.998 26.0532 155.946 26.2015 155.903 26.3215L154.22 30.7477H153.055ZM154.325 28.9052L154.749 27.8039H158.116L158.603 28.9052H154.325Z" fill="#6A3190"/>
<path d="M166.16 30.8536C165.645 30.8536 165.172 30.7618 164.741 30.5783C164.311 30.3947 163.937 30.1335 163.619 29.7947C163.301 29.4488 163.054 29.0429 162.878 28.5769C162.708 28.111 162.624 27.5992 162.624 27.0415C162.624 26.5121 162.715 26.0215 162.899 25.5697C163.09 25.1108 163.351 24.7084 163.683 24.3625C164.014 24.0166 164.399 23.7484 164.837 23.5578C165.274 23.3672 165.747 23.2719 166.256 23.2719C166.616 23.2719 166.965 23.3283 167.304 23.4413C167.65 23.5472 167.96 23.6989 168.236 23.8966C168.518 24.0872 168.748 24.306 168.924 24.5531L168.162 25.3473C167.957 25.1426 167.749 24.9731 167.537 24.839C167.332 24.6978 167.12 24.5919 166.902 24.5214C166.69 24.4508 166.474 24.4155 166.256 24.4155C165.91 24.4155 165.585 24.4825 165.281 24.6167C164.985 24.7437 164.724 24.9237 164.498 25.1567C164.279 25.3896 164.106 25.6685 163.979 25.9932C163.852 26.3109 163.788 26.6603 163.788 27.0415C163.788 27.4439 163.848 27.811 163.968 28.1428C164.095 28.4675 164.272 28.7464 164.498 28.9793C164.724 29.2123 164.992 29.3923 165.303 29.5194C165.62 29.6394 165.97 29.6994 166.351 29.6994C166.584 29.6994 166.813 29.6676 167.039 29.6041C167.265 29.5405 167.477 29.4488 167.675 29.3288C167.872 29.2087 168.052 29.0676 168.215 28.9052L168.786 29.837C168.624 30.0276 168.402 30.2006 168.119 30.3559C167.844 30.5112 167.533 30.6347 167.187 30.7265C166.849 30.8112 166.506 30.8536 166.16 30.8536Z" fill="#6A3190"/>
<path d="M172.458 30.7477V23.3354H177.127V24.4366H173.601V29.6464H177.127V30.7477H172.458ZM172.977 27.4969V26.3956H176.545V27.4969H172.977Z" fill="#6A3190"/>
<defs>
<clipPath id="clip0_3577_6927">
<rect width="29.75" height="36.75" fill="white" transform="translate(3.5 0.125)"/>
</clipPath>
</defs>
</svg>
